<?xml version="1.0" standalone="no"?>
<!DOCTYPE svg PUBLIC "-//W3C//DTD SVG 20010904//EN"
 "http://www.w3.org/TR/2001/REC-SVG-20010904/DTD/svg10.dtd">
<svg version="1.0" xmlns="http://www.w3.org/2000/svg"
 width="2000.000000pt" height="2000.000000pt" viewBox="0 0 2000.000000 2000.000000"
 preserveAspectRatio="xMidYMid meet">
<metadata>
Created by potrace 1.15, written by Peter Selinger 2001-2017
</metadata>
<g transform="translate(0.000000,2000.000000) scale(0.100000,-0.100000)"
fill="#000000" stroke="none">
<path d="M10405 17161 c-98 -47 -198 -143 -321 -307 l-57 -74 -72 69 c-141
134 -273 169 -399 107 -67 -33 -233 -187 -329 -306 -181 -224 -318 -501 -362
-731 -20 -107 -20 -317 1 -417 10 -51 32 -108 65 -170 61 -115 85 -187 94
-277 12 -122 -27 -267 -96 -360 -19 -25 -97 -93 -174 -152 -190 -146 -322
-278 -365 -366 -58 -118 -50 -273 21 -459 l30 -76 127 127 c70 70 165 157 212
195 174 139 397 272 558 332 37 14 74 31 82 37 8 7 -7 -13 -33 -43 -97 -111
-170 -304 -196 -515 -26 -214 -9 -598 40 -910 25 -156 78 -417 88 -427 3 -4
12 -3 20 1 11 7 8 39 -22 187 -69 342 -97 592 -97 869 0 359 46 552 181 751
70 105 121 158 190 201 32 19 56 40 52 46 -3 5 -5 57 -5 114 l2 104 -28 10
c-169 63 -302 225 -372 453 l-23 74 -59 16 c-136 38 -206 117 -249 283 -25
101 -25 198 1 241 29 47 75 72 137 72 71 0 103 -28 128 -111 21 -68 57 -119
84 -119 39 0 92 84 135 217 24 74 64 123 153 189 156 117 295 280 404 471 30
54 62 99 71 101 12 2 21 -12 33 -55 65 -224 281 -445 579 -593 116 -57 146
-95 146 -185 0 -35 -9 -92 -20 -127 -13 -41 -21 -104 -24 -179 -8 -185 -35
-376 -62 -437 -33 -76 -133 -210 -205 -276 -70 -65 -154 -111 -237 -130 l-57
-13 -3 -79 -3 -79 76 -39 c42 -21 99 -61 128 -89 47 -46 57 -51 137 -67 359
-74 613 -368 730 -848 l23 -94 49 49 c153 150 144 326 -24 475 -225 200 -282
268 -325 385 -64 177 -19 373 130 566 28 38 80 105 115 150 167 218 204 400
126 618 -37 104 -72 170 -191 363 -112 181 -155 262 -196 366 -30 78 -101 381
-116 502 -17 126 -58 230 -127 315 -71 87 -187 108 -299 54z m-245 -582 c105
-60 274 -253 485 -554 53 -76 51 -75 -71 27 -145 121 -443 447 -495 541 -15
27 18 21 81 -14z"/>
<path d="M9781 15729 c-13 -10 -29 -19 -35 -19 -28 0 -93 -41 -104 -65 -41
-90 23 -196 99 -164 57 23 79 121 39 172 -24 30 -25 37 -6 37 18 0 38 26 34
44 -2 12 -7 11 -27 -5z"/>
<path d="M10497 15710 c-9 -11 -28 -20 -42 -20 -16 0 -25 -6 -25 -15 0 -8 -6
-15 -14 -15 -8 0 -26 -14 -40 -31 -20 -24 -26 -41 -26 -81 0 -41 5 -54 29 -79
33 -33 50 -35 90 -15 56 29 70 122 26 175 l-26 30 23 12 c26 13 38 28 38 47 0
18 -13 15 -33 -8z"/>
<path d="M9750 15040 c0 -23 32 -70 62 -93 48 -35 92 -47 175 -47 139 0 218
39 230 113 5 33 3 37 -16 37 -16 0 -21 -6 -21 -25 l0 -25 -190 0 -190 0 0 25
c0 20 -5 25 -25 25 -14 0 -25 -5 -25 -10z"/>
<path d="M10430 14241 c0 -11 9 -22 19 -26 27 -8 96 -85 122 -137 12 -23 34
-80 50 -125 l27 -81 -46 -24 c-38 -20 -53 -36 -77 -83 -27 -53 -30 -69 -33
-174 -4 -116 7 -176 29 -169 8 3 12 50 13 138 1 123 3 140 26 185 27 54 87 97
102 72 6 -9 12 -9 28 1 50 31 160 -41 231 -151 21 -32 41 -72 44 -88 7 -33 30
-48 47 -31 15 15 -50 146 -102 205 -56 64 -93 88 -163 107 l-59 16 -27 85
c-48 147 -113 249 -182 285 -37 19 -49 18 -49 -5z"/>
<path d="M10004 3914 c-123 -122 -160 -359 -101 -647 42 -206 41 -207 -244
-207 -187 0 -207 2 -222 18 -15 17 -17 59 -18 383 -1 249 -5 380 -13 414 l-12
50 -7 -50 c-4 -27 -21 -272 -39 -542 -30 -478 -31 -493 -13 -513 17 -19 30
-20 320 -20 257 0 304 2 315 15 12 14 11 36 -6 149 -3 19 3 10 16 -24 11 -30
27 -74 36 -97 l16 -43 64 0 64 0 2 301 3 301 90 -248 c49 -136 99 -261 110
-278 11 -17 36 -41 54 -53 l34 -23 415 0 414 0 -4 55 c-6 69 -31 106 -84 122
-85 26 -293 54 -413 56 -189 3 -176 -8 -402 339 -200 308 -257 410 -290 518
-11 38 -25 70 -30 70 -5 0 -30 -21 -55 -46z"/>
</g>
</svg>
